<svg width="58" height="58" viewBox="0 0 58 58" fill="none" xmlns="http://www.w3.org/2000/svg">
<path d="M17.8441 30.8125H22.0309L19.9375 24.7837L17.8441 30.8125ZM39.875 29C38.3763 29 37.1562 30.22 37.1562 31.7188C37.1562 33.2175 38.3763 34.4375 39.875 34.4375C41.3737 34.4375 42.5938 33.2175 42.5938 31.7188C42.5938 30.22 41.3737 29 39.875 29ZM52.5625 7.25H5.4375C2.43555 7.25 0 9.68555 0 12.6875V45.3125C0 48.3145 2.43555 50.75 5.4375 50.75H52.5625C55.5645 50.75 58 48.3145 58 45.3125V12.6875C58 9.68555 55.5645 7.25 52.5625 7.25ZM28.386 39.875H26.467C25.6956 39.875 25.008 39.3856 24.7542 38.6572L23.9193 36.25H15.9568L15.1208 38.6572C14.9972 39.013 14.7658 39.3215 14.4589 39.5397C14.1519 39.7579 13.7846 39.8751 13.408 39.875H11.489C10.2418 39.875 9.36723 38.6459 9.77617 37.4678L15.8594 19.9511C16.0447 19.4177 16.3916 18.9552 16.8518 18.6279C17.312 18.3007 17.8627 18.1249 18.4275 18.125H21.4475C22.0124 18.1249 22.5633 18.3008 23.0235 18.6283C23.4838 18.9558 23.8306 19.4185 24.0156 19.9522L30.0977 37.4678C30.5066 38.6459 29.6321 39.875 28.386 39.875ZM48.0312 38.0625C48.0312 39.0639 47.2202 39.875 46.2188 39.875H44.4062C43.8568 39.875 43.3822 39.6179 43.0491 39.2316C42.0727 39.6462 40.9999 39.875 39.875 39.875C35.3777 39.875 31.7188 36.216 31.7188 31.7188C31.7188 27.2215 35.3777 23.5625 39.875 23.5625C40.8334 23.5625 41.7396 23.7585 42.5938 24.0632V19.9375C42.5938 18.9361 43.4048 18.125 44.4062 18.125H46.2188C47.2202 18.125 48.0312 18.9361 48.0312 19.9375V38.0625Z" fill="white"/>
</svg>
