<svg width="58" height="58" viewBox="0 0 58 58" fill="none" xmlns="http://www.w3.org/2000/svg">
<path d="M21.4953 35.6146V39.8436C21.4953 40.7517 21.8564 41.623 22.4985 42.265C23.1406 42.9071 24.0118 43.2678 24.9199 43.2678H32.5731C33.4815 43.2678 34.3524 42.9071 34.9944 42.265C35.637 41.623 35.9976 40.7517 35.9976 39.8436V39.5127L45.5513 42.1664C45.9557 42.2854 46.3925 42.2062 46.7292 41.9535C47.0664 41.7009 47.2646 41.3035 47.2637 40.8822V16.0736C47.2664 15.651 47.069 15.2523 46.7319 14.9984C46.3942 14.7439 45.9566 14.6647 45.5512 14.7837L22.2198 21.3355H17.8766C15.9831 21.3355 14.1671 22.0877 12.8281 23.4268C11.4892 24.7657 10.7373 26.5819 10.7373 28.4752C10.7373 30.3687 11.4891 32.1848 12.8281 33.5237C14.1671 34.8627 15.9832 35.615 17.8766 35.615L21.4953 35.6146ZM33.732 39.8436C33.732 40.1463 33.6116 40.4366 33.3975 40.6508C33.1833 40.8649 32.893 40.9849 32.5903 40.9849H24.9372C24.3066 40.9849 23.7955 40.4742 23.7955 39.8437V36.0771L33.7487 38.8738L33.732 39.8436Z" fill="white"/>
</svg>
