<svg width="58" height="58" viewBox="0 0 58 58" fill="none" xmlns="http://www.w3.org/2000/svg">
<path d="M21.4951 35.6146V39.8436C21.4951 40.7517 21.8562 41.623 22.4983 42.265C23.1403 42.9071 24.0116 43.2678 24.9196 43.2678H32.5728C33.4813 43.2678 34.3521 42.9071 34.9942 42.265C35.6367 41.623 35.9974 40.7517 35.9974 39.8436V39.5127L45.5511 42.1664C45.9555 42.2854 46.3923 42.2062 46.729 41.9535C47.0661 41.7009 47.2644 41.3035 47.2635 40.8822V16.0736C47.2662 15.651 47.0688 15.2523 46.7316 14.9984C46.394 14.7439 45.9563 14.6647 45.551 14.7837L22.2196 21.3355H17.8764C15.9829 21.3355 14.1669 22.0877 12.8279 23.4268C11.4889 24.7657 10.7371 26.5819 10.7371 28.4752C10.7371 30.3687 11.4889 32.1848 12.8279 33.5237C14.1669 34.8627 15.983 35.615 17.8764 35.615L21.4951 35.6146ZM33.7317 39.8436C33.7317 40.1463 33.6114 40.4366 33.3972 40.6508C33.183 40.8649 32.8928 40.9849 32.5901 40.9849H24.9369C24.3063 40.9849 23.7953 40.4742 23.7953 39.8437V36.0771L33.7485 38.8738L33.7317 39.8436Z" fill="white"/>
</svg>
