<svg width="34" height="34" viewBox="0 0 34 34" fill="none" xmlns="http://www.w3.org/2000/svg">
<path fill-rule="evenodd" clip-rule="evenodd" d="M17 3.1875C9.37157 3.1875 3.1875 9.37157 3.1875 17C3.1875 24.6284 9.37157 30.8125 17 30.8125C24.6284 30.8125 30.8125 24.6284 30.8125 17C30.8125 9.37157 24.6284 3.1875 17 3.1875ZM18.0625 8.5C18.0625 7.9132 17.5868 7.4375 17 7.4375C16.4132 7.4375 15.9375 7.9132 15.9375 8.5V17C15.9375 17.5868 16.4132 18.0625 17 18.0625H23.375C23.9618 18.0625 24.4375 17.5868 24.4375 17C24.4375 16.4132 23.9618 15.9375 23.375 15.9375H18.0625V8.5Z" fill="white"/>
</svg>
