<svg width="36" height="36" viewBox="0 0 36 36" fill="none" xmlns="http://www.w3.org/2000/svg">
<path d="M9.19993 24.3813C8.7275 24.8537 8.705 25.6974 9.21118 26.1923C9.7061 26.6872 10.5497 26.676 11.0222 26.2035L17.9062 19.3083L24.8014 26.2035C25.2851 26.6872 26.1175 26.6872 26.6124 26.1923C27.0961 25.6861 27.1073 24.865 26.6124 24.3813L19.7284 17.4861L26.6124 10.6021C27.1073 10.1184 27.1073 9.286 26.6124 8.79107C26.1062 8.30739 25.2851 8.29614 24.8014 8.77982L17.9062 15.6751L11.0222 8.77982C10.5497 8.30739 9.69486 8.28489 9.21118 8.79107C8.71625 9.286 8.7275 10.1296 9.19993 10.6021L16.0952 17.4861L9.19993 24.3813Z" fill="white"/>
</svg>
