<svg width="58" height="58" viewBox="0 0 58 58" fill="none" xmlns="http://www.w3.org/2000/svg">
<path d="M42.3763 53.0771H15.6238C15.1327 53.0771 14.7322 53.4767 14.7322 53.9688V54.8605H43.2689V53.9688C43.2684 53.4767 42.8684 53.0771 42.3768 53.0771H42.3763Z" fill="white"/>
<path d="M3.13916 37.0259H54.8611V10.2734H3.13916V37.0259ZM34.7967 13.6084C35.4618 13.9939 36.0906 14.4457 36.6668 14.955L35.4871 16.2918C34.9994 15.8613 34.4662 15.4776 33.9034 15.1523L34.7967 13.6084ZM36.1336 23.6493C36.1336 23.9874 35.9428 24.2958 35.6406 24.4476L24.9395 29.7979C24.8134 29.8603 24.6771 29.8917 24.5404 29.8917C24.3771 29.8917 24.2147 29.847 24.0713 29.759C23.8094 29.5957 23.6487 29.3094 23.6487 29.0001V18.299C23.6487 17.9896 23.8094 17.7033 24.0713 17.5401C24.3342 17.3768 24.6634 17.3626 24.9391 17.5007L35.6402 22.8509C35.9424 23.0027 36.1336 23.3112 36.1336 23.6492L36.1336 23.6493ZM28.9995 12.0561C30.3247 12.0561 31.624 12.2783 32.8634 12.7159L32.2695 14.3979C31.2217 14.0271 30.1211 13.8399 28.9994 13.8399C23.5912 13.8399 19.19 18.2407 19.19 23.6494C19.19 29.0577 23.5907 33.4589 28.9994 33.4589C34.4077 33.4589 38.8089 29.0581 38.8089 23.6494C38.8089 21.5807 38.1721 19.6019 36.9685 17.9278L38.4168 16.8861C39.8395 18.8655 40.5922 21.2036 40.5922 23.6489C40.5922 30.0409 35.3914 35.2421 28.999 35.2421C22.6065 35.2421 17.4058 30.0414 17.4058 23.6489C17.4058 17.2564 22.6061 12.0557 28.999 12.0557L28.9995 12.0561Z" fill="white"/>
<path d="M25.4329 27.5567L33.2479 23.649L25.4329 19.7412V27.5567Z" fill="white"/>
<path d="M26.3242 44.1597H31.6745V51.2938H26.3242V44.1597Z" fill="white"/>
<path d="M53.9683 3.13916H4.03057C3.53939 3.13916 3.13892 3.53963 3.13892 4.03081V8.48944H54.8609V4.03081C54.8609 3.53963 54.4604 3.13916 53.9688 3.13916H53.9683ZM6.70627 6.70616H4.92254V4.92243H6.70582L6.70627 6.70616ZM10.2733 6.70616H8.48954V4.92243H10.2728L10.2733 6.70616ZM13.8403 6.70616H12.057L12.0566 4.92243H13.8398L13.8403 6.70616Z" fill="white"/>
<path d="M3.13916 41.4849C3.13916 41.977 3.53963 42.3766 4.03081 42.3766H53.9686C54.4598 42.3766 54.8602 41.977 54.8602 41.4849V38.8096H3.13941L3.13916 41.4849Z" fill="white"/>
</svg>
