<svg width="58" height="58" viewBox="0 0 58 58" fill="none" xmlns="http://www.w3.org/2000/svg">
<path d="M32.3632 28.1831L30.8454 28.7128C30.3879 28.8725 30.0281 29.1929 29.8326 29.6159C29.6113 30.0576 29.5834 30.539 29.7432 30.9962C30.0684 31.9298 31.0933 32.4245 32.0274 32.0984L33.5443 31.5688L32.954 29.8758L32.3632 28.1831Z" fill="white"/>
<path d="M39.1002 32.9749L41.0884 38.6761C41.3645 39.4678 41.3154 40.3196 40.9507 41.0754C40.5861 41.8304 39.9494 42.3986 39.1573 42.6746C38.817 42.7937 38.4687 42.8499 38.1245 42.8499C37.0235 42.8499 35.9703 42.2689 35.3982 41.2679L31.1604 33.8564C29.8319 33.7479 28.6244 32.8868 28.158 31.5496C27.8473 30.6593 27.9057 29.7137 28.3213 28.8875C28.6974 28.0728 29.4023 27.4392 30.293 27.1286L31.8608 26.5816C31.767 25.8082 32.1122 25.0368 32.7919 24.605C32.8795 24.5492 32.9764 24.5108 33.0777 24.4904C35.7169 23.9616 38.0714 22.5022 40.4556 19.9375C40.2061 19.1875 40.2534 18.3843 40.5972 17.6696C40.949 16.9395 41.5628 16.3912 42.3266 16.1239C43.1005 15.8566 43.9267 15.9049 44.6528 16.2642C44.7378 16.3053 44.8117 16.3615 44.8913 16.4098V14.0437C44.8913 13.5321 44.0324 12.96 42.8824 12.96H17.4961C16.346 12.96 15.4862 13.5321 15.4862 14.0437V19.1622C15.4862 19.2135 15.4659 19.2577 15.457 19.3064H21.0299C22.9698 19.3064 24.5479 20.8844 24.5479 22.8244V34.5331C24.5479 36.473 22.9698 38.0511 21.0299 38.0511H15.4866V43.9558C15.4866 44.4674 16.3464 45.0395 17.4964 45.0395H42.8828C44.0328 45.0395 44.8917 44.4674 44.8917 43.9558V33.0291C44.8917 32.9981 44.9063 32.9715 44.9094 32.9415C42.8615 32.491 40.9388 32.5007 39.1007 32.9746L39.1002 32.9749Z" fill="white"/>
<path d="M22.8703 34.5326V22.8239C22.8703 21.8101 22.045 20.9849 21.0312 20.9849H4.8207C3.80692 20.9849 2.98169 21.8101 2.98169 22.8239V34.5326C2.98169 35.5464 3.80697 36.3716 4.8207 36.3716C5.90926 36.3716 6.79428 37.2566 6.79428 38.3452V40.5493L10.0383 37.1766C10.5308 36.6651 11.2203 36.3717 11.93 36.3717H21.0301C22.0443 36.3721 22.87 35.5464 22.87 34.5327L22.8703 34.5326ZM17.1761 29.6124L11.1142 32.9042C10.8836 33.0286 10.634 33.0909 10.3845 33.0909C10.1154 33.0909 9.84682 33.0188 9.60433 32.8745C9.13704 32.5967 8.85783 32.1059 8.85783 31.5616V24.9709C8.85783 24.4266 9.13749 23.9359 9.60522 23.658C10.0734 23.3792 10.638 23.3695 11.1159 23.6301L17.1769 26.9281C17.6695 27.1953 17.9743 27.71 17.9743 28.2698C17.9743 28.8304 17.6677 29.3442 17.1761 29.6124Z" fill="white"/>
<path d="M42.8825 11.2817C43.6303 11.2817 44.3162 11.4445 44.8914 11.7202V6.84243C44.8914 5.73528 43.99 4.8335 42.8825 4.8335H17.4962C16.3881 4.8335 15.4863 5.73487 15.4863 6.84243V11.7205C16.062 11.4444 16.7479 11.2816 17.4962 11.2816L42.8825 11.2817ZM28.8016 7.16776H31.5752C32.039 7.16776 32.4146 7.543 32.4146 8.00719C32.4146 8.47095 32.0394 8.84663 31.5752 8.84663H28.8016C28.3379 8.84663 27.9622 8.47139 27.9622 8.00719C27.9622 7.54344 28.3379 7.16776 28.8016 7.16776Z" fill="white"/>
<path d="M17.4962 46.7183C16.7479 46.7183 16.062 46.5554 15.4863 46.2793V51.1574C15.4863 52.2654 16.3877 53.1673 17.4962 53.1673H42.8825C43.9896 53.1673 44.8914 52.2659 44.8914 51.1574V46.2796C44.3162 46.5553 43.6307 46.7182 42.8825 46.7182L17.4962 46.7183ZM30.1893 50.9039C29.7256 50.9039 29.2959 50.4742 29.2959 50.0105C29.2959 49.5467 29.7256 49.1171 30.1893 49.1171C30.6531 49.1171 31.0836 49.5467 31.0836 50.0105C31.0836 50.4742 30.6535 50.9039 30.1893 50.9039Z" fill="white"/>
<path d="M38.6049 41.0881C38.9735 40.9597 39.2696 40.6956 39.4395 40.3438C39.609 39.992 39.632 39.5964 39.5032 39.2273L37.5053 33.4978C37.1384 33.6505 36.7738 33.8208 36.4127 34.0124C36.3176 34.0633 36.2145 34.0952 36.107 34.1058C36.034 34.1142 35.9609 34.1173 35.8879 34.1173C35.1702 34.1173 34.5179 33.7407 34.1476 33.1367L32.9268 33.5629L36.8563 40.434C37.2041 41.0456 37.9395 41.3195 38.6051 41.0881L38.6049 41.0881Z" fill="white"/>
<path d="M44.3483 31.1115L42.0743 24.5899L41.0756 21.7261C38.7011 24.1085 36.2987 25.5103 33.6113 26.0923C33.5268 26.1932 33.4976 26.3348 33.5423 26.4644L34.5393 29.3239L35.4061 31.8094L35.5367 32.1833C35.5809 32.3103 35.6898 32.4037 35.8168 32.4307C38.5041 31.0509 41.3084 30.6168 44.3483 31.1115Z" fill="white"/>
<path d="M44.5988 18.5386C44.4797 18.2001 44.2372 17.928 43.916 17.7722C43.7284 17.6797 43.5275 17.6328 43.3252 17.6328C43.1761 17.6328 43.0261 17.658 42.8801 17.7089C42.5398 17.828 42.2672 18.0722 42.1106 18.3975C41.9539 18.7218 41.9327 19.0878 42.0517 19.4263L46.5767 32.4038C46.8228 33.106 47.5971 33.4791 48.2936 33.233C48.9968 32.9879 49.3689 32.2175 49.1238 31.5152L44.5988 18.5386Z" fill="white"/>
<path d="M52.5499 23.03C52.6579 23.03 52.7681 23.0096 52.8729 22.9653L54.3403 22.3529C54.7682 22.1742 54.9704 21.6834 54.7921 21.2555C54.6133 20.8267 54.1177 20.6254 53.6947 20.8037L52.2273 21.4161C51.7994 21.5949 51.5972 22.0857 51.7755 22.5135C51.9096 22.8357 52.222 23.03 52.5499 23.03Z" fill="white"/>
<path d="M54.1789 25.7021H54.1682L52.5398 25.7234C52.0761 25.7291 51.7052 26.1101 51.711 26.5734C51.7168 27.0332 52.0911 27.4022 52.5504 27.4022H52.5611L54.1895 27.381C54.6532 27.3753 55.024 26.9943 55.0183 26.531C55.0125 26.0712 54.6382 25.7021 54.1789 25.7021Z" fill="white"/>
<path d="M52.0843 17.0626C51.8245 16.6789 51.3051 16.5771 50.9188 16.8364L49.5687 17.7471C49.185 18.006 49.0832 18.5281 49.3425 18.9127C49.5049 19.1529 49.7696 19.2822 50.039 19.2822C50.2006 19.2822 50.3634 19.2353 50.5077 19.1388L51.8577 18.2281C52.2418 17.9688 52.3432 17.4467 52.0843 17.0626Z" fill="white"/>
</svg>
