<svg width="44" height="44" viewBox="0 0 44 44" fill="none" xmlns="http://www.w3.org/2000/svg">
<path d="M22 1.375C13.6467 1.375 6.875 8.14669 6.875 16.5C6.875 22.0931 9.91157 26.9753 14.4195 29.5908C15.6761 30.32 16.4631 31.4388 16.4987 32.5647C16.5183 33.1857 16.952 33.7164 17.5567 33.8594C18.2009 34.0116 18.8574 34.1314 19.5242 34.2171C20.1175 34.2934 20.6253 33.8181 20.6253 33.22V24.6747C20.04 24.61 19.4664 24.5043 18.9076 24.3605C18.1722 24.1712 17.7294 23.4216 17.9187 22.6862C18.108 21.9507 18.8576 21.508 19.5931 21.6973C20.3609 21.8949 21.1672 22.0003 22.0003 22.0003C22.8334 22.0003 23.6398 21.8949 24.4076 21.6973C25.143 21.508 25.8927 21.9507 26.0819 22.6862C26.2712 23.4216 25.8285 24.1712 25.0931 24.3605C24.5343 24.5043 23.9607 24.61 23.3753 24.6747V33.2199C23.3753 33.818 23.8832 34.2933 24.4765 34.217C25.1431 34.1314 25.7993 34.0116 26.4433 33.8594C27.048 33.7164 27.4817 33.1857 27.5013 32.5647C27.5369 31.4388 28.3239 30.32 29.5805 29.5908C34.0884 26.9753 37.125 22.0931 37.125 16.5C37.125 8.14669 30.3533 1.375 22 1.375Z" fill="white"/>
<path fill-rule="evenodd" clip-rule="evenodd" d="M16.5241 36.4827C16.6656 35.7366 17.3852 35.2465 18.1313 35.3881C19.3834 35.6256 20.6765 35.75 22 35.75C23.3235 35.75 24.6166 35.6256 25.8687 35.3881C26.6148 35.2465 27.3344 35.7366 27.4759 36.4827C27.6174 37.2288 27.1273 37.9483 26.3813 38.0899C24.9611 38.3593 23.4963 38.5 22 38.5C20.5037 38.5 19.039 38.3593 17.6187 38.0899C16.8727 37.9483 16.3826 37.2288 16.5241 36.4827Z" fill="white"/>
<path fill-rule="evenodd" clip-rule="evenodd" d="M17.8825 40.9639C17.9615 40.2087 18.6378 39.6605 19.3931 39.7395C20.2494 39.829 21.1191 39.875 22 39.875C22.8809 39.875 23.7506 39.829 24.6069 39.7395C25.3622 39.6605 26.0385 40.2087 26.1175 40.9639C26.1965 41.7192 25.6483 42.3955 24.8931 42.4745C23.9419 42.574 22.9767 42.625 22 42.625C21.0233 42.625 20.0581 42.574 19.1069 42.4745C18.3517 42.3955 17.8035 41.7192 17.8825 40.9639Z" fill="white"/>
</svg>
