<svg width="58" height="58" viewBox="0 0 58 58" fill="none" xmlns="http://www.w3.org/2000/svg">
<path d="M42.3756 53.0771H15.6231C15.1319 53.0771 14.7314 53.4767 14.7314 53.9688V54.8605H43.2681V53.9688C43.2677 53.4767 42.8677 53.0771 42.376 53.0771H42.3756Z" fill="white"/>
<path d="M3.13867 37.0259H54.8606V10.2734H3.13867V37.0259ZM34.7963 13.6084C35.4613 13.9939 36.0902 14.4457 36.6663 14.955L35.4866 16.2918C34.9989 15.8613 34.4657 15.4776 33.9029 15.1523L34.7963 13.6084ZM36.1331 23.6493C36.1331 23.9874 35.9424 24.2958 35.6401 24.4476L24.939 29.7979C24.8129 29.8603 24.6766 29.8917 24.5399 29.8917C24.3766 29.8917 24.2142 29.847 24.0708 29.759C23.8089 29.5957 23.6482 29.3094 23.6482 29.0001V18.299C23.6482 17.9896 23.8089 17.7033 24.0708 17.5401C24.3337 17.3768 24.6629 17.3626 24.9386 17.5007L35.6397 22.8509C35.9419 23.0027 36.1331 23.3112 36.1331 23.6492L36.1331 23.6493ZM28.999 12.0561C30.3242 12.0561 31.6235 12.2783 32.8629 12.7159L32.269 14.3979C31.2212 14.0271 30.1207 13.8399 28.9989 13.8399C23.5907 13.8399 19.1895 18.2407 19.1895 23.6494C19.1895 29.0577 23.5902 33.4589 28.9989 33.4589C34.4072 33.4589 38.8084 29.0581 38.8084 23.6494C38.8084 21.5807 38.1717 19.6019 36.9681 17.9278L38.4164 16.8861C39.8391 18.8655 40.5917 21.2036 40.5917 23.6489C40.5917 30.0409 35.391 35.2421 28.9985 35.2421C22.606 35.2421 17.4053 30.0414 17.4053 23.6489C17.4053 17.2564 22.6056 12.0557 28.9985 12.0557L28.999 12.0561Z" fill="white"/>
<path d="M25.4326 27.5567L33.2477 23.649L25.4326 19.7412V27.5567Z" fill="white"/>
<path d="M26.3242 44.1597H31.6745V51.2938H26.3242V44.1597Z" fill="white"/>
<path d="M53.9681 3.13916H4.03032C3.53914 3.13916 3.13867 3.53963 3.13867 4.03081V8.48944H54.8606V4.03081C54.8606 3.53963 54.4602 3.13916 53.9685 3.13916H53.9681ZM6.70602 6.70616H4.9223V4.92243H6.70557L6.70602 6.70616ZM10.273 6.70616H8.4893V4.92243H10.2726L10.273 6.70616ZM13.84 6.70616H12.0568L12.0563 4.92243H13.8396L13.84 6.70616Z" fill="white"/>
<path d="M3.13867 41.4849C3.13867 41.977 3.53914 42.3766 4.03032 42.3766H53.9681C54.4593 42.3766 54.8597 41.977 54.8597 41.4849V38.8096H3.13892L3.13867 41.4849Z" fill="white"/>
</svg>
