<svg width="36" height="36" viewBox="0 0 36 36" fill="none" xmlns="http://www.w3.org/2000/svg">
<path d="M9.77352 18.7573H16.635V25.6188C16.635 26.3162 17.2087 26.9011 17.9173 26.9011C18.626 26.9011 19.1997 26.3162 19.1997 25.6188V18.7573H26.0612C26.7586 18.7573 27.3435 18.1836 27.3435 17.475C27.3435 16.7663 26.7586 16.1926 26.0612 16.1926H19.1997V9.33114C19.1997 8.63374 18.626 8.04883 17.9173 8.04883C17.2087 8.04883 16.635 8.63374 16.635 9.33114V16.1926H9.77352C9.07613 16.1926 8.49121 16.7663 8.49121 17.475C8.49121 18.1836 9.07613 18.7573 9.77352 18.7573Z" fill="white"/>
</svg>
