<svg width="24" height="24" viewBox="0 0 24 24" fill="none" xmlns="http://www.w3.org/2000/svg">
<path fill-rule="evenodd" clip-rule="evenodd" d="M8.23706 3.74414L19.4694 3.74414C19.668 3.74414 19.8584 3.82303 19.9989 3.96347C20.1393 4.1039 20.2182 4.29436 20.2182 4.49296V15.7253C20.2182 16.1388 19.8829 16.4741 19.4694 16.4741C19.0558 16.4741 18.7206 16.1388 18.7206 15.7253V6.30078L5.02246 19.9989C4.73002 20.2913 4.2559 20.2913 3.96347 19.9989C3.67103 19.7064 3.67103 19.2323 3.96347 18.9399L17.6616 5.24178L8.23706 5.24178C7.8235 5.24178 7.48824 4.90652 7.48824 4.49296C7.48824 4.0794 7.8235 3.74414 8.23706 3.74414Z" fill="#FFD11A"/>
</svg>
