<svg width="28" height="28" viewBox="0 0 28 28" fill="none" xmlns="http://www.w3.org/2000/svg">
<path fill-rule="evenodd" clip-rule="evenodd" d="M6.22266 14C6.22266 13.3235 6.75544 12.775 7.41266 12.775H17.9448L14.5212 9.5747C14.0474 9.10577 14.0327 8.3303 14.4882 7.84262C14.9437 7.35494 15.697 7.33973 16.1708 7.80866L21.7241 13.117C21.9575 13.3479 22.0893 13.6668 22.0893 14C22.0893 14.3332 21.9575 14.6521 21.7241 14.883L16.1708 20.1914C15.697 20.6603 14.9437 20.6451 14.4882 20.1574C14.0327 19.6697 14.0474 18.8942 14.5212 18.4253L17.9448 15.225H7.41266C6.75544 15.225 6.22266 14.6766 6.22266 14Z" fill="white"/>
</svg>
