<svg width="34" height="34" viewBox="0 0 34 34" fill="none" xmlns="http://www.w3.org/2000/svg">
<path fill-rule="evenodd" clip-rule="evenodd" d="M17.7306 3.07377C17.3208 2.6857 16.6792 2.6857 16.2694 3.07377C13.4123 5.77956 9.55718 7.43753 5.3125 7.43753C5.24497 7.43753 5.17754 7.43711 5.11021 7.43627C4.64644 7.43051 4.23253 7.72624 4.08767 8.16684C3.50324 9.94442 3.1875 11.8427 3.1875 13.8126C3.1875 22.2304 8.94491 29.3009 16.7352 31.306C16.9089 31.3507 17.0911 31.3507 17.2648 31.306C25.0551 29.3009 30.8125 22.2304 30.8125 13.8126C30.8125 11.8427 30.4968 9.94442 29.9123 8.16684C29.7675 7.72624 29.3536 7.43051 28.8898 7.43627C28.8225 7.43711 28.755 7.43753 28.6875 7.43753C24.4428 7.43753 20.5877 5.77956 17.7306 3.07377ZM22.1146 14.4299C22.4557 13.9524 22.3451 13.2889 21.8676 12.9478C21.3901 12.6067 20.7265 12.7173 20.3854 13.1948L15.8019 19.6117L13.5013 17.3111C13.0864 16.8961 12.4136 16.8961 11.9987 17.3111C11.5838 17.726 11.5838 18.3987 11.9987 18.8137L15.1862 22.0012C15.407 22.222 15.7139 22.3345 16.0251 22.3088C16.3364 22.283 16.6206 22.1216 16.8021 21.8674L22.1146 14.4299Z" fill="white"/>
</svg>
