<svg width="44" height="44" viewBox="0 0 44 44" fill="none" xmlns="http://www.w3.org/2000/svg">
<path fill-rule="evenodd" clip-rule="evenodd" d="M16.5 8.25C17.1139 8.25 17.6534 8.65697 17.8221 9.24726L19.313 14.4653C19.9655 16.7492 21.7508 18.5345 24.0347 19.187L29.2527 20.6779C29.843 20.8466 30.25 21.3861 30.25 22C30.25 22.6139 29.843 23.1534 29.2527 23.3221L24.0347 24.813C21.7508 25.4655 19.9655 27.2508 19.313 29.5347L17.8221 34.7527C17.6534 35.343 17.1139 35.75 16.5 35.75C15.8861 35.75 15.3466 35.343 15.1779 34.7527L13.687 29.5347C13.0345 27.2508 11.2492 25.4655 8.96527 24.813L3.74726 23.3221C3.15697 23.1534 2.75 22.6139 2.75 22C2.75 21.3861 3.15697 20.8466 3.74726 20.6779L8.96527 19.187C11.2492 18.5345 13.0345 16.7492 13.687 14.4653L15.1779 9.24726C15.3466 8.65697 15.8861 8.25 16.5 8.25Z" fill="white"/>
<path fill-rule="evenodd" clip-rule="evenodd" d="M33 2.75C33.6309 2.75 34.1809 3.17941 34.3339 3.79151L34.8085 5.68986C35.2396 7.41411 36.5859 8.76041 38.3101 9.19147L40.2085 9.66605C40.8206 9.81908 41.25 10.3691 41.25 11C41.25 11.6309 40.8206 12.1809 40.2085 12.3339L38.3101 12.8085C36.5859 13.2396 35.2396 14.5859 34.8085 16.3101L34.3339 18.2085C34.1809 18.8206 33.6309 19.25 33 19.25C32.3691 19.25 31.8191 18.8206 31.6661 18.2085L31.1915 16.3101C30.7604 14.5859 29.4141 13.2396 27.6899 12.8085L25.7915 12.3339C25.1794 12.1809 24.75 11.6309 24.75 11C24.75 10.3691 25.1794 9.81908 25.7915 9.66605L27.6899 9.19147C29.4141 8.76041 30.7604 7.41411 31.1915 5.68986L31.6661 3.79151C31.8191 3.17941 32.3691 2.75 33 2.75Z" fill="white"/>
<path fill-rule="evenodd" clip-rule="evenodd" d="M30.25 27.5C30.8418 27.5 31.3673 27.8787 31.5544 28.4402L32.2772 30.6085C32.5509 31.4297 33.1953 32.0741 34.0165 32.3478L36.1848 33.0706C36.7463 33.2577 37.125 33.7832 37.125 34.375C37.125 34.9668 36.7463 35.4923 36.1848 35.6794L34.0165 36.4022C33.1953 36.6759 32.5509 37.3203 32.2772 38.1415L31.5544 40.3098C31.3673 40.8713 30.8418 41.25 30.25 41.25C29.6582 41.25 29.1327 40.8713 28.9456 40.3098L28.2228 38.1415C27.9491 37.3203 27.3047 36.6759 26.4835 36.4022L24.3152 35.6794C23.7537 35.4923 23.375 34.9668 23.375 34.375C23.375 33.7832 23.7537 33.2577 24.3152 33.0706L26.4835 32.3478C27.3047 32.0741 27.9491 31.4297 28.2228 30.6085L28.9456 28.4402C29.1327 27.8787 29.6582 27.5 30.25 27.5Z" fill="white"/>
</svg>
