<svg width="26" height="26" viewBox="0 0 26 26" fill="none" xmlns="http://www.w3.org/2000/svg">
<path d="M23.403 11.7296C23.6799 12.078 23.8332 12.5306 23.8332 12.9999C23.8332 13.4691 23.6799 13.9217 23.403 14.2701C21.6497 16.4124 17.6587 20.5832 12.9998 20.5832C8.34098 20.5832 4.35006 16.4124 2.59672 14.2701C2.31979 13.9217 2.1665 13.4691 2.1665 12.9999C2.1665 12.5306 2.31979 12.078 2.59672 11.7296C4.35006 9.58734 8.34098 5.4165 12.9998 5.4165C17.6587 5.4165 21.6497 9.58734 23.403 11.7296Z" stroke="#98989A" stroke-width="1.5" stroke-linecap="round" stroke-linejoin="round"/>
<path d="M13.0004 16.37C14.8448 16.37 16.3401 14.8611 16.3401 12.9997C16.3401 11.1383 14.8448 9.62936 13.0004 9.62936C11.1559 9.62936 9.66071 11.1383 9.66071 12.9997C9.66071 14.8611 11.1559 16.37 13.0004 16.37Z" stroke="#98989A" stroke-width="1.5" stroke-linecap="round" stroke-linejoin="round"/>
</svg>
