<svg width="58" height="58" viewBox="0 0 58 58" fill="none" xmlns="http://www.w3.org/2000/svg">
<path d="M49.905 39.9055C49.9665 39.7758 50.0059 39.632 50.0059 39.4785V16.505C50.0059 15.9612 49.566 15.52 49.0208 15.52H8.97933C8.43549 15.52 7.99475 15.9608 7.99475 16.505V39.4785C7.99475 39.6325 8.03281 39.7758 8.0952 39.9055L3.31836 39.905V41.4932C3.31836 42.0371 3.75909 42.4783 4.30293 42.4783H53.6992C54.2431 42.4783 54.6842 42.0375 54.6842 41.4932V39.905L49.905 39.9055ZM29.0001 16.0519C29.2142 16.0519 29.3881 16.2258 29.3881 16.4399C29.3881 16.6541 29.2142 16.828 29.0001 16.828C28.7854 16.828 28.612 16.6541 28.612 16.4399C28.612 16.2258 28.7854 16.0519 29.0001 16.0519ZM9.67654 17.4187H48.3236V38.2896H9.67654V17.4187ZM31.456 41.5816H26.5442C26.3301 41.5816 26.1562 41.4064 26.1562 41.1922C26.1562 40.978 26.3301 40.8041 26.5442 40.8041H31.456C31.6702 40.8041 31.8441 40.978 31.8441 41.1922C31.8441 41.4064 31.6702 41.5816 31.456 41.5816Z" fill="white"/>
<path d="M28.5662 33.266V32.3818H20.448V33.266H28.5662Z" fill="white"/>
<path d="M28.5662 30.543H20.448V31.428H28.5662V30.543Z" fill="white"/>
<path d="M28.5662 24.8584H20.448V29.5618H28.5662V24.8584Z" fill="white"/>
<path d="M11.3735 30.543H19.4922V31.428H11.3735V30.543Z" fill="white"/>
<path d="M11.3735 32.3823H19.4922V33.2665H11.3735V32.3823Z" fill="white"/>
<path d="M11.3735 34.2212H19.4922V35.1062H11.3735V34.2212Z" fill="white"/>
<path d="M20.4473 35.1057H28.5655V34.2202H20.4473V35.1057Z" fill="white"/>
<path d="M29.5212 34.2212H37.6403V35.1062H29.5212V34.2212Z" fill="white"/>
<path d="M38.595 35.1057H46.7132V34.2202H38.595V35.1057Z" fill="white"/>
<path d="M29.5212 30.543H37.6403V31.428H29.5212V30.543Z" fill="white"/>
<path d="M29.5212 32.3823H37.6403V33.2665H29.5212V32.3823Z" fill="white"/>
<path d="M38.595 31.4275H46.7132V30.5425H38.595V31.4275Z" fill="white"/>
<path d="M38.595 33.266H46.7132V32.3818H38.595V33.266Z" fill="white"/>
<path d="M11.3735 36.1309H46.7116V37.0159H11.3735V36.1309Z" fill="white"/>
<path d="M11.3735 18.979H46.7116V23.682H11.3735V18.979Z" fill="white"/>
<path d="M11.3735 24.8584H19.4922V29.5618H11.3735V24.8584Z" fill="white"/>
<path d="M29.5212 24.8584H37.6403V29.5618H29.5212V24.8584Z" fill="white"/>
<path d="M38.595 29.5618H46.7132V24.8584H38.595V29.5618Z" fill="white"/>
</svg>
